<svg xmlns="http://www.w3.org/2000/svg" viewBox="0 0 1200 800" width="1200" height="800"><path fill="#FFF" d="M0 0h1200v800H0z"/><g transform="translate(560.0 360.0) rotate(43.21308249774145 40.0 40.0) scale(1.6666666666666667 1.6666666666666667)"><svg width="48" height="48" viewBox="0 0 48 48"><linearGradient id="a" x1="9" x2="39" y1="24" y2="24" gradientUnits="userSpaceOnUse"><stop offset="0" stop-color="#F47D02"/><stop offset=".231" stop-color="#F4830A"/><stop offset=".597" stop-color="#ff971f"/><stop offset="1" stop-color="#ffad40"/></linearGradient><path fill="url(#a)" d="m9 32 16-16h14L23 32z"/><linearGradient id="b" x1="7" x2="28.246" y1="16.086" y2="16.086" gradientUnits="userSpaceOnUse"><stop offset="0" stop-color="#F47D02"/><stop offset=".231" stop-color="#F4830A"/><stop offset=".597" stop-color="#ff971f"/><stop offset="1" stop-color="#ffad40"/></linearGradient><path fill="url(#b)" d="M26.709 3.709a5.245 5.245 0 0 0-7.419 0L7 16v14l19.628-18.793a5.245 5.245 0 0 0 .081-7.498z"/><linearGradient id="c" x1="19.754" x2="41" y1="32.086" y2="32.086" gradientUnits="userSpaceOnUse"><stop offset="0" stop-color="#F47D02"/><stop offset=".231" stop-color="#F4830A"/><stop offset=".597" stop-color="#ff971f"/><stop offset="1" stop-color="#ffad40"/></linearGradient><path fill="url(#c)" d="M41 18.173v14L28.709 44.464a5.246 5.246 0 1 1-7.337-7.498L41 18.173z"/></svg></g></svg>